<?xml version="1.0" encoding="utf-8"?>
<!-- Generator: Adobe Illustrator 28.0.0, SVG Export Plug-In . SVG Version: 6.00 Build 0)  -->
<svg version="1.1" id="Layer_1" xmlns="http://www.w3.org/2000/svg" xmlns:xlink="http://www.w3.org/1999/xlink" x="0px" y="0px"
	 viewBox="0 0 720 720" style="enable-background:new 0 0 720 720;" xml:space="preserve">
<style type="text/css">
	.st0{fill:#FFFFFF;}
	.st1{font-family:'Bookmania-Bold';}
	.st2{font-size:59.599px;}
	.st3{font-family:'Avenir-Book';}
	.st4{font-size:33.4084px;}
</style>
<rect class="st0" width="720" height="720"/>
<g>
	<g>
		<path d="M396.3,254.87c-0.01,0.03-0.02,0.06-0.03,0.08v6.57c4.53,0.96,9.25,0.97,13.79,0.04v-6.65
			C405.58,256.15,400.77,256.14,396.3,254.87z"/>
		<path d="M385.81,254.87c0.01,0.03,0.02,0.06,0.03,0.08v6.57c-4.52,0.96-9.24,0.97-13.76,0.04v-6.65
			C376.54,256.15,381.34,256.14,385.81,254.87z"/>
		<path d="M385.81,272.34c0.01,0.03,0.02,0.06,0.03,0.08v6.57c-4.52,0.96-9.24,0.97-13.76,0.04v-6.65
			C376.54,273.62,381.34,273.61,385.81,272.34z"/>
		<path d="M390.53,253.39c-2.14-0.02-4.28-0.25-6.38-0.69v-0.04C386.24,253.12,388.38,253.36,390.53,253.39z"/>
		<path d="M397.89,263.48c0.01,0.03,0.02,0.06,0.03,0.08v6.57c-4.53,0.96-9.25,0.97-13.78,0.04v-6.65
			C388.62,264.76,393.43,264.75,397.89,263.48z"/>
		<path d="M397.89,280.95c0.01,0.03,0.02,0.06,0.03,0.08v6.57c-4.53,0.96-9.24,0.97-13.77,0.04v-6.65
			C388.62,282.23,393.42,282.22,397.89,280.95z"/>
		<path d="M408.43,280.95c-0.01,0.03-0.02,0.06-0.03,0.08v6.57c4.39,0.96,8.97,0.97,13.36,0.04v-6.65
			C417.42,282.23,412.76,282.22,408.43,280.95z"/>
		<path d="M359.92,246.01c-0.01,0.03-0.02,0.06-0.03,0.08v6.57c4.54,0.96,9.27,0.97,13.82,0.04v-6.65
			C369.23,247.3,364.4,247.28,359.92,246.01z"/>
		<path d="M359.92,263.48c-0.01,0.03-0.02,0.06-0.03,0.08v6.57c4.54,0.96,9.28,0.97,13.82,0.04v-6.65
			C369.23,264.76,364.4,264.75,359.92,263.48z"/>
		<path d="M359.92,280.95c-0.01,0.03-0.02,0.06-0.03,0.08v6.57c4.53,0.96,9.25,0.97,13.79,0.04v-6.65
			C369.2,282.23,364.39,282.22,359.92,280.95z"/>
		<path d="M382.07,280.49v8.43c-2.09,0.26-4.21,0.27-6.3,0v-8.43C377.85,280.89,379.99,280.89,382.07,280.49z"/>
		<path d="M382.07,263.33v8.43c-2.09,0.26-4.21,0.27-6.3,0v-8.43C377.85,263.73,379.99,263.73,382.07,263.33z"/>
		<path d="M394.19,271.86v8.43c-0.01,0-0.03,0-0.05,0.01c-1.46,0.18-2.71,0.2-3.58,0.19c-0.73-0.01-1.63-0.06-2.65-0.19v-8.43
			C389.99,272.26,392.12,272.26,394.19,271.86z"/>
		<path d="M394.19,254.55v8.43c-2.09,0.26-4.2,0.27-6.28,0v-8.43C389.99,254.95,392.12,254.95,394.19,254.55z"/>
		<path d="M406.32,280.49v8.43c-2.1,0.26-4.22,0.27-6.32,0v-8.43C402.09,280.89,404.23,280.89,406.32,280.49z"/>
		<path d="M406.32,263.33v8.43c-2.1,0.26-4.22,0.27-6.32,0v-8.43C402.09,263.73,404.23,263.73,406.32,263.33z"/>
		<path d="M406.33,245.74v8.43c-2.1,0.26-4.23,0.27-6.33,0v-8.43C402.09,246.14,404.24,246.14,406.33,245.74z"/>
		<path d="M418.12,271.86v8.43c-1.99,0.26-4,0.27-5.98,0v-8.43C414.11,272.26,416.14,272.26,418.12,271.86z"/>
		<path d="M418.12,254.55v8.43c-1.99,0.26-4,0.27-5.98,0v-8.43C414.11,254.95,416.14,254.95,418.12,254.55z"/>
		<path d="M370,271.86v8.43c-2.11,0.26-4.25,0.27-6.37,0v-8.43C365.74,272.26,367.89,272.26,370,271.86z"/>
		<path d="M370,254.55v8.43c-2.11,0.26-4.25,0.27-6.37,0v-8.43C365.74,254.95,367.89,254.95,370,254.55z"/>
		<g>
			<path d="M262.75,247.76l8.93-4.88c0.28,1.03,1.04,2.28,2.05,2.85L262.75,247.76z"/>
		</g>
		<path d="M394.19,241.4c0,1.24,0,2.49,0,3.73c-1,0.07-2.08,0.1-3.23,0.08c-0.96-0.02-1.86-0.07-2.71-0.15c0-1.6,0-3.19,0-4.79
			c0.59-0.53,1.19-1.06,1.78-1.6c0.38,0.46,0.93,1.03,1.7,1.57C392.67,240.89,393.57,241.22,394.19,241.4z"/>
		<path d="M418.45,241.4c0,1.26,0,2.51,0,3.77c-1.08,0.05-2.23,0.07-3.44,0.04c-1.01-0.02-1.97-0.08-2.88-0.15c0-1.6,0-3.19,0-4.79
			c0.63-0.53,1.26-1.06,1.89-1.6c0.4,0.46,0.99,1.03,1.81,1.57C416.83,240.89,417.78,241.22,418.45,241.4z"/>
		<path d="M366.81,240.14c0.6,0.39,1.5,0.84,2.8,1.08c0,1.29,0,2.58,0,3.87c-2.22,0.17-4.22,0.16-5.98,0.05v-5.54
			c0,0,0.01,0,0.02-0.01c0.15-0.07,0.42-0.21,0.68-0.4c0,0,0.12-0.09,0.6-0.51l0,0l0,0C366.54,239.96,366.81,240.14,366.81,240.14z"
			/>
		<path d="M345.36,244.66v0.38c-1,0.08-1.95,0.12-2.85,0.13L345.36,244.66z"/>
		<path d="M435.29,240.93c0,0-1.38,0.25-2.22,0.32c-1.41,0.11-2.58-0.21-3.12-0.38c-1.56-0.51-2.63-1.43-3.22-2.05
			c-0.4,0.38-0.98,0.87-1.72,1.35c-0.36,0.23-0.96,0.61-1.73,0.91c-0.58,0.22-1.51,0.5-2.75,0.52v2.08
			c0.71,0.19,1.43,0.36,2.14,0.49c0.25,0.05,0.5,0.1,0.75,0.13c0.04,0.01,0.08,0.01,0.12,0.02c0.21,0.03,0.42,0.07,0.63,0.1
			c1.66,0.23,5.98,0.17,5.98,0.17c0.91-0.01,1.24-0.01,1.74-0.07c0.57-0.07,0.78-0.14,1.88-0.3c0.66-0.1,0.65-0.08,0.72-0.12
			C435.52,243.52,435.29,240.93,435.29,240.93z"/>
		<path d="M429.93,253.68c0.03,0,0.06,0,0.09-0.01v0C429.98,253.68,429.96,253.68,429.93,253.68z"/>
		<path d="M284.9,262.9v8.19c-0.43,0.07-1.06,0.16-1.83,0.15c-0.93-0.01-1.14-0.04-1.27-0.1c-0.13-0.06-0.63-0.32-1.19-1.77
			c-0.32-0.85-0.18-0.83-0.6-2.29c-0.18-0.64-0.39-1.27-0.6-2.27c-0.19-0.91-0.15-1.02-0.11-1.09c0.37-0.61,1.71-0.09,3.77-0.37
			C283.87,263.23,284.5,263.04,284.9,262.9z"/>
		<path d="M288.79,289.26c-0.9,0-2.06,0.06-2.48,0.38c-0.01,0.01-0.02,0.02-0.02,0.02c0,0,0,0,0,0c-0.33,0.26,0,1.13,0,1.13
			c0.1,0.25,0.19,0.53,0.3,0.84c0.17,0.5,0.25,0.8,0.33,1.06c0.05,0.16,0.3,0.98,0.66,1.73c0.23,0.47,0.6,1.13,1.22,1.87V289.26z"/>
		<path d="M285.09,281.19c-0.13-0.01-0.37-0.01-0.63,0.11c-0.12,0.06-0.35,0.16-0.45,0.38c-0.11,0.23-0.03,0.48,0.01,0.62
			c0.15,0.5,0.23,1.01,0.39,1.5c0.26,0.82,0.41,1.47,0.49,1.87c0.1,0.46,0.16,0.83,0.2,1.08
			C285.09,284.91,285.09,283.05,285.09,281.19z"/>
		<path d="M432.58,246.01c0.46,0.05,0.91,0.17,1.11,0.47c0.01,0.01,0.02,0.02,0.02,0.02c0.02,0.03,0.05,0.08,0.07,0.14
			c0.13,0.38,0.02,1.06-0.53,3.67c-0.26,1.25-0.48,2.22-0.67,3V246.01z"/>
		<path d="M309.31,251.17v2.95c-2.41,0.12-4.55,0.05-6.34-0.1v-1.78L309.31,251.17z"/>
		<path d="M297.19,241.68c0-0.32,0-0.64,0-0.95c-0.54,0.11-1.34,0.23-2.3,0.17c-0.45-0.03-1.14-0.07-1.97-0.35
			c-0.99-0.34-1.72-0.85-2.21-1.3c0,1.17,0,2.34,0,3.51L297.19,241.68z"/>
		<path d="M305.35,240.15c-2.03,0.39-4.06,0.78-6.08,1.17c0-0.3,0-0.6,0-0.9c0.51-0.16,0.92-0.35,1.23-0.52
			c0.27-0.14,0.75-0.4,1.28-0.88c0.32-0.28,0.56-0.55,0.73-0.76c0.2,0.19,0.48,0.43,0.83,0.7c0.28,0.22,0.56,0.43,0.94,0.66
			C304.54,239.78,304.9,239.97,305.35,240.15z"/>
		<path d="M333.55,246.84v7.19c-2.36,0.19-4.49,0.19-6.34,0.09v-6.21L333.55,246.84z"/>
		<path d="M386.18,241.09c0,0.82,0,1.65,0,2.47c-0.7,0.24-1.67,0.51-2.87,0.73c-0.26,0.04-0.53,0.09-0.81,0.13
			c-0.16,0.02-0.32,0.04-0.49,0.06c-3.66,0.41-7.51-0.2-7.51-0.2c-0.69-0.11-1.66-0.3-2.81-0.61c-0.01-0.85-0.02-1.69-0.02-2.54
			c0.87-0.12,2.08-0.37,3.4-0.99c1-0.47,1.8-1.01,2.38-1.48c0.27,0.31,0.67,0.7,1.2,1.1c1.09,0.81,2.11,1.12,2.59,1.26
			C383.35,241.65,385.26,241.32,386.18,241.09z"/>
		<path d="M289.5,231.69c-0.43-0.18-1.35-0.5-2.53-0.36c-1.01,0.11-1.75,0.51-2.13,0.75c-0.72,0.37-1.43,0.89-2.12,1.55l-0.03,0.03
			c-0.23,0.21-0.45,0.43-0.68,0.63l-2.43,2.12l-0.68,0.59c0.02,0.02,0.05,0.04,0.07,0.06c0.03,0.02,0.05,0.04,0.08,0.06
			c0.29,0.25,0.58,0.48,0.87,0.68c0.05,0.04,0.11,0.08,0.17,0.12c0.38,0.25,0.77,0.46,1.16,0.63c0.74,0.32,1.48,0.48,2.23,0.49
			c0.5,0.01,0.98-0.06,1.43-0.17c0.26-0.06,0.51-0.14,0.75-0.24c0.27-0.1,0.52-0.22,0.75-0.34c0.46-0.24,0.86-0.51,1.19-0.76
			c0.36-0.27,0.65-0.53,0.84-0.72c0.06-0.06,0.12-0.12,0.18-0.18c0.32-0.31,0.59-0.57,0.86-0.79l0.15-0.13l0.5-0.43l2.16-1.88
			C291.73,232.88,290.75,232.12,289.5,231.69z"/>
		<path d="M279.8,233.29l-2.84,2.47c-0.15,0.13-0.29,0.26-0.45,0.39c-0.26,0.22-0.53,0.43-0.8,0.63c0,0,0,0-0.01,0.01
			c-0.29,0.22-0.58,0.42-0.85,0.62c-0.03,0.02-0.06,0.04-0.09,0.06c-0.22,0.16-0.44,0.31-0.65,0.45c-0.23,0.15-0.45,0.29-0.66,0.42
			c-0.92,0.54-1.73,0.82-2.49,0.63c-1.13-0.28-2.11-1.47-2.18-2.65c-0.08-1.16,0.74-2.02,1.46-2.79c1.66-1.76,3.44-2.19,4.63-2.24
			c0.09,0,0.17-0.01,0.26-0.01C277.39,231.28,279.03,232.54,279.8,233.29z"/>
		<path d="M304.79,233.38l-2.81,2.44c-0.11,0.1-0.23,0.2-0.35,0.31c-0.21,0.19-0.44,0.41-0.69,0.66l0,0
			c-0.17,0.17-0.42,0.39-0.72,0.64c0,0,0,0,0,0c-0.3,0.24-0.67,0.49-1.09,0.73c-0.21,0.12-0.43,0.23-0.66,0.33
			c-0.03,0.01-0.06,0.03-0.09,0.04c-0.21,0.09-0.44,0.17-0.66,0.24c-0.03,0.01-0.06,0.01-0.09,0.03c-0.21,0.06-0.44,0.11-0.66,0.15
			c-0.3,0.05-0.6,0.08-0.92,0.08h-0.06c-1.55-0.02-3.08-0.7-4.57-2.04l0.28-0.24l0.85-0.74l0.86-0.74l1.12-0.98
			c0.23-0.2,0.46-0.42,0.68-0.63l0.03-0.03c1.67-1.59,3.4-2.35,5.16-2.27C302.4,231.47,304.01,232.68,304.79,233.38z"/>
		<path d="M317.3,233.38l-2.57,2.24l-0.14,0.12l-0.1,0.09c-0.27,0.24-0.56,0.51-0.9,0.83c0,0.01-0.01,0.01-0.02,0.01
			c-0.04,0.04-0.09,0.09-0.13,0.13c-0.2,0.2-0.5,0.47-0.89,0.76c-0.53,0.4-1.23,0.83-2.05,1.12c-0.24,0.09-0.49,0.16-0.75,0.22
			c-0.24,0.06-0.49,0.09-0.75,0.12c-0.17,0.01-0.35,0.02-0.52,0.02c-0.75-0.01-1.49-0.17-2.23-0.49c-0.38-0.17-0.77-0.37-1.15-0.62
			c-0.06-0.04-0.12-0.07-0.18-0.12c-0.29-0.2-0.58-0.43-0.87-0.68c-0.03-0.02-0.05-0.04-0.08-0.06c-0.02-0.02-0.05-0.04-0.07-0.06
			l0.69-0.6l2.42-2.11c0.23-0.2,0.45-0.42,0.68-0.63l0.03-0.03c1.67-1.59,3.39-2.35,5.16-2.27
			C314.91,231.47,316.52,232.67,317.3,233.38z"/>
		<path d="M329.81,233.39l-2.81,2.44c-0.17,0.15-0.35,0.31-0.54,0.49c-0.02,0.02-0.04,0.04-0.07,0.06h0l-8.73,1.56
			c-0.37-0.24-0.74-0.52-1.1-0.84c-0.04-0.04-0.09-0.07-0.13-0.11l0.72-0.63l0.86-0.74l1.53-1.33c0.23-0.2,0.44-0.4,0.66-0.61
			l0.05-0.04c1.67-1.59,3.4-2.36,5.16-2.27C327.42,231.47,329.03,232.68,329.81,233.39z"/>
		<path d="M342.32,233.39l-0.22,0.19l-11.62,2.08l1.57-1.37c0.23-0.2,0.46-0.42,0.68-0.63l0.03-0.03c1.67-1.59,3.4-2.36,5.16-2.27
			C339.93,231.47,341.54,232.68,342.32,233.39z"/>
		<path d="M350.93,231.8c-0.23,0.1-0.45,0.2-0.66,0.32l-4.48,0.8c1.5-0.82,3.06-1.2,4.63-1.15
			C350.6,231.77,350.77,231.78,350.93,231.8z"/>
		<path d="M367.32,233.83c-0.03,0.03-1.94,1.71-1.98,1.74c-0.43,0.38-0.87,0.75-1.3,1.14c-0.26,0.25-0.66,0.62-1.03,0.9
			c-0.33,0.26-0.69,0.51-0.69,0.51c-0.05,0.04-0.08,0.05-0.11,0.08c-0.23,0.16-0.48,0.31-0.76,0.46c-0.04,0.02-0.07,0.04-0.11,0.06
			c-0.07,0.04-0.14,0.07-0.21,0.1c-0.08,0.04-0.17,0.08-0.25,0.11c-0.16,0.07-0.33,0.13-0.51,0.19c0.01-0.04,0.03-0.08,0.04-0.11
			c0-0.01,0.01-0.01,0.01-0.02c0.26-0.69,0.39-1.43,0.39-2.21c0-1.53-0.54-2.94-1.44-4.04c0.51-0.32,1.03-0.56,1.56-0.72
			c0,0,0.91-0.28,1.93-0.25C364.06,231.8,365.76,232.44,367.32,233.83z"/>
		<path d="M418.35,237.25v0.12l0.11-0.09L418.35,237.25z M425.77,239.03c-0.03,0.03-0.06,0.06-0.1,0.09"/>
		<path d="M289.85,316.38c0.26-0.22,0.66-0.57,1.14-0.98c1.6-1.39,2.4-2.08,2.52-2.2c0.49-0.48,2.29-2.29,2.79-5.01
			c0.11-0.6,0.27-1.5-0.01-2.61c-0.29-1.19-0.9-1.98-1.23-2.34c-0.52,0.46-1.04,0.91-1.56,1.37c-0.93,0.82-3.72,3.27-2.79,2.45l0,0
			c-0.2,0.17-0.46,0.4-0.75,0.7c-0.28,0.3-0.75,0.79-1.08,1.42c-0.44,0.82-0.68,1.77-0.68,2.69c0,0-0.01,1.29,0.51,2.58
			c0.11,0.28,0.24,0.54,0.38,0.78c0.06,0.11,0.12,0.21,0.18,0.3c0.16,0.25,0.28,0.43,0.32,0.49
			C289.65,316.11,289.74,316.24,289.85,316.38z"/>
		<path d="M289.85,327.75c0.26-0.22,0.66-0.57,1.14-0.98c1.6-1.39,2.4-2.08,2.52-2.2c0.49-0.48,2.29-2.29,2.79-5.01
			c0.11-0.6,0.27-1.5-0.01-2.61c-0.29-1.19-0.9-1.98-1.23-2.34c-0.52,0.46-1.04,0.91-1.56,1.37c-0.93,0.82-3.72,3.27-2.79,2.45l0,0
			c-0.2,0.17-0.46,0.4-0.75,0.7c-0.28,0.3-0.75,0.79-1.08,1.42c-0.44,0.82-0.68,1.77-0.68,2.69c0,0-0.01,1.29,0.51,2.58
			c0.11,0.28,0.24,0.54,0.38,0.78c0.06,0.11,0.12,0.21,0.18,0.3c0.16,0.25,0.28,0.43,0.32,0.49
			C289.65,327.49,289.74,327.61,289.85,327.75z"/>
		<path d="M289.86,339.13c0.34-0.3,0.76-0.67,1.1-0.97c0.85-0.75,1.69-1.49,2.54-2.23c0.8-0.8,2.33-2.55,2.79-5.01
			c0.11-0.59,0.27-1.49-0.01-2.61c-0.29-1.19-0.9-1.98-1.23-2.34c-0.52,0.46-1.04,0.91-1.56,1.37c-0.93,0.82-3.72,3.27-2.79,2.45
			c-0.2,0.17-0.46,0.4-0.75,0.7c-0.28,0.3-0.75,0.79-1.08,1.42c-0.44,0.82-0.68,1.77-0.68,2.69c0,0-0.01,1.29,0.51,2.58
			c0.11,0.28,0.24,0.54,0.38,0.78c0.06,0.11,0.12,0.21,0.18,0.3c0.13,0.21,0.24,0.37,0.32,0.49
			C289.66,338.85,289.75,338.98,289.86,339.13z"/>
		<path d="M297.66,297.23c-0.12-0.08-0.4-0.25-0.75-0.43c-0.97-0.48-1.86-0.64-2.04-0.67c-0.38-0.06-0.78-0.1-1.21-0.1
			c-0.08,0-0.17,0-0.25,0c-0.68,0.02-1.54,0.15-2.46,0.53c-0.24,0.1-0.49,0.22-0.75,0.36c-0.07,0.04-0.13,0.07-0.21,0.12
			c-0.18,0.11-0.36,0.22-0.54,0.35c-0.03,0.02-0.06,0.05-0.1,0.07c-0.19,0.14-0.37,0.29-0.56,0.46c-1.23,1.11-1.46,2.34-1.46,2.34
			c-0.13,0.68,0,1.44,0.27,2.04c0.1,0.22,0.46,0.78,1.19,1.12c0.12,0.05,0.64,0.28,1.33,0.25c0,0,0.14-0.01,0.28-0.03
			c1.31-0.21,2.74-1.48,2.74-1.48c1.05-0.92,2.11-1.83,3.14-2.77c0.83-0.75,1.52-1.35,1.98-1.73
			C298.1,297.53,297.9,297.38,297.66,297.23z"/>
		<path d="M408.38,302.34c0.04,0.03,0.08,0.05,0.12,0.08c0.08,0.05,0.16,0.11,0.25,0.16c0.15,0.1,0.32,0.19,0.5,0.28
			c0.08,0.04,0.17,0.09,0.25,0.12c0.85,0.4,1.95,0.72,3.27,0.7c0.08,0,0.17,0,0.25-0.01c0.68-0.04,1.54-0.18,2.45-0.58
			c0.24-0.1,0.49-0.22,0.74-0.37c0.07-0.04,0.13-0.08,0.2-0.12c0.18-0.11,0.36-0.23,0.54-0.36c0.03-0.02,0.06-0.05,0.1-0.07
			c0.18-0.14,0.37-0.3,0.55-0.46c1.21-1.13,1.41-2.36,1.41-2.36c0.11-0.68-0.03-1.43-0.32-2.02c-0.11-0.22-0.48-0.77-1.22-1.09
			c-0.12-0.05-0.64-0.27-1.34-0.22c-0.55,0.04-1.13,0.24-2.99,1.74c-0.41,0.33-0.97,0.79-1.62,1.38c-0.48,0.4-0.95,0.81-1.43,1.21
			c-0.51,0.46-1.02,0.92-1.53,1.38l-0.5,0.38C408.17,302.19,408.27,302.26,408.38,302.34z"/>
		<path d="M322.73,298.04l-0.51,0.45l-0.29,0.25c-0.08,0.07-0.15,0.13-0.23,0.2l-1.76,1.53c-0.31,0.27-0.64,0.57-1.04,0.97
			c-0.69,0.67-2.52,2.22-4.89,2.22h-0.06c-1.55-0.01-3.07-0.7-4.55-2.03l3.1-2.7c0.16-0.14,0.32-0.29,0.48-0.44
			c0.07-0.06,0.13-0.12,0.19-0.19l0.03-0.03c0.17-0.17,0.35-0.32,0.52-0.47c0.17-0.14,0.34-0.28,0.51-0.4
			c0.07-0.05,0.13-0.1,0.2-0.15c0.01-0.01,0.02-0.01,0.03-0.02c1.27-0.87,2.56-1.28,3.87-1.21c0.76,0.04,1.46,0.24,2.09,0.51
			c0.06,0.03,0.13,0.06,0.19,0.09c0.2,0.09,0.38,0.19,0.56,0.29c0.07,0.04,0.13,0.07,0.19,0.11c0.2,0.12,0.39,0.24,0.56,0.37
			c0.18,0.13,0.35,0.26,0.5,0.38C322.53,297.87,322.64,297.96,322.73,298.04z"/>
		<path d="M335.2,298.04l-0.93,0.81l-0.37,0.32c-0.29,0.25-0.57,0.5-0.86,0.74l-0.64,0.56c-0.31,0.27-0.64,0.58-1.04,0.97
			c-0.69,0.67-2.53,2.22-4.89,2.22h-0.05c-1.55-0.01-3.08-0.7-4.56-2.03l3.02-2.63l0.06-0.06l0.01-0.01
			c0.22-0.19,0.42-0.38,0.63-0.59c0.01-0.01,0.03-0.03,0.04-0.04l0.03-0.03c0.01-0.01,0.02-0.02,0.03-0.03
			c0.21-0.2,0.43-0.39,0.64-0.57c0.03-0.03,0.07-0.06,0.1-0.08c1.42-1.12,2.89-1.66,4.37-1.58c0.57,0.03,1.1,0.14,1.6,0.32
			c0.26,0.09,0.51,0.19,0.75,0.3c0.27,0.13,0.52,0.26,0.75,0.41c0.13,0.08,0.26,0.16,0.38,0.25c0.3,0.21,0.56,0.41,0.77,0.6
			C335.11,297.96,335.15,298,335.2,298.04z"/>
		<path d="M347.68,298.04l-0.48,0.42l-2.31,2.02c-0.31,0.27-0.65,0.58-1.04,0.97c-0.69,0.67-2.52,2.22-4.89,2.22h-0.06
			c-1.55-0.01-3.08-0.7-4.56-2.03l3.1-2.7c0.04-0.03,0.07-0.07,0.11-0.1c0.19-0.17,0.38-0.34,0.57-0.53l0.03-0.03
			c0.05-0.05,0.1-0.1,0.16-0.14c0.27-0.25,0.55-0.48,0.82-0.69c1.36-1.02,2.75-1.5,4.16-1.43c0.52,0.03,1.01,0.13,1.47,0.27
			c0.09,0.03,0.17,0.06,0.25,0.09c0.19,0.06,0.37,0.14,0.54,0.22c0.07,0.03,0.14,0.06,0.21,0.1c0.27,0.13,0.52,0.27,0.75,0.42
			c0.3,0.2,0.57,0.39,0.8,0.58l0,0C347.45,297.84,347.57,297.95,347.68,298.04z"/>
		<path d="M359.8,297.94c0.04,0.04,0.09,0.07,0.12,0.11l-0.94,0.82l-0.63,0.55l-0.58,0.51l-0.64,0.56
			c-0.31,0.27-0.64,0.58-1.04,0.97c-0.69,0.68-2.56,2.26-4.95,2.22c-1.55-0.01-3.07-0.7-4.55-2.03l2.81-2.44
			c0.08-0.07,0.16-0.14,0.24-0.21l0.05-0.04c0.16-0.14,0.31-0.28,0.46-0.43c0.06-0.06,0.13-0.12,0.19-0.19l0.05-0.04
			c0.17-0.16,0.34-0.31,0.51-0.46c0.06-0.05,0.12-0.1,0.18-0.15c1.45-1.17,2.94-1.73,4.45-1.65c0.46,0.02,0.91,0.11,1.33,0.23
			c0.26,0.07,0.51,0.17,0.75,0.27c0.27,0.11,0.52,0.24,0.75,0.37c0.25,0.14,0.48,0.29,0.69,0.44
			C359.34,297.55,359.59,297.75,359.8,297.94z"/>
		<g>
			<path d="M397.13,298.04c-0.15,0.13-0.3,0.27-0.46,0.4c-0.15,0.13-0.3,0.26-0.45,0.39c-0.62,0.54-1.23,1.07-1.85,1.61
				c-0.08,0.07-0.2,0.19-0.35,0.32c-0.72,0.64-1.77,1.58-2.08,1.82c-0.52,0.42-1.54,0.99-3.55,1.08c-0.02,0-0.04,0-0.06,0
				c-1.55-0.01-3.07-0.7-4.56-2.03l2.66-2.32l0.44-0.39c0.13-0.11,0.26-0.23,0.39-0.36c0.09-0.09,0.19-0.18,0.28-0.27l0.03-0.03
				c0.16-0.16,0.33-0.3,0.49-0.44c1.5-1.27,3.04-1.89,4.61-1.81h0.04c0.09,0,0.19,0.01,0.28,0.03c0.15,0.01,0.29,0.03,0.43,0.06
				c0.11,0.02,0.22,0.04,0.32,0.07c0.15,0.03,0.29,0.07,0.43,0.12c0.11,0.03,0.22,0.07,0.32,0.11c0.67,0.25,1.25,0.59,1.73,0.93
				C396.61,297.59,396.9,297.84,397.13,298.04z"/>
		</g>
		<g>
			<path d="M384.73,298.04c-0.15,0.13-0.3,0.27-0.46,0.4c-0.15,0.13-0.3,0.26-0.45,0.39c-0.62,0.54-1.23,1.07-1.85,1.61
				c-0.08,0.07-0.2,0.19-0.35,0.32c-0.72,0.64-1.77,1.58-2.08,1.82c-0.52,0.42-1.54,0.99-3.55,1.08c-0.02,0-0.04,0-0.06,0
				c-1.55-0.01-3.07-0.7-4.56-2.03l2.66-2.32l0.44-0.39c0.13-0.11,0.26-0.23,0.39-0.36c0.09-0.09,0.19-0.18,0.28-0.27l0.03-0.03
				c0.16-0.16,0.33-0.3,0.49-0.44c1.5-1.27,3.04-1.89,4.61-1.81h0.04c0.09,0,0.19,0.01,0.28,0.03c0.15,0.01,0.29,0.03,0.43,0.06
				c0.11,0.02,0.22,0.04,0.32,0.07c0.15,0.03,0.29,0.07,0.43,0.12c0.11,0.03,0.22,0.07,0.32,0.11c0.67,0.25,1.25,0.59,1.73,0.93
				C384.21,297.59,384.51,297.84,384.73,298.04z"/>
		</g>
		<g>
			<path d="M372.31,298.04c-0.15,0.13-0.3,0.27-0.46,0.4c-0.15,0.13-0.3,0.26-0.45,0.39c-0.62,0.54-1.23,1.07-1.85,1.61
				c-0.08,0.07-0.2,0.19-0.35,0.32c-0.72,0.64-1.77,1.58-2.08,1.82c-0.52,0.42-1.54,0.99-3.55,1.08c-0.02,0-0.04,0-0.06,0
				c-1.55-0.01-3.07-0.7-4.56-2.03l2.66-2.32l0.44-0.39c0.13-0.11,0.26-0.23,0.39-0.36c0.09-0.09,0.19-0.18,0.28-0.27l0.03-0.03
				c0.16-0.16,0.33-0.3,0.49-0.44c1.5-1.27,3.04-1.89,4.61-1.81h0.04c0.09,0,0.19,0.01,0.28,0.03c0.15,0.01,0.29,0.03,0.43,0.06
				c0.11,0.02,0.22,0.04,0.32,0.07c0.15,0.03,0.29,0.07,0.43,0.12c0.11,0.03,0.22,0.07,0.32,0.11c0.67,0.25,1.25,0.59,1.73,0.93
				C371.78,297.59,372.08,297.84,372.31,298.04z"/>
		</g>
		<g>
			<path d="M409.55,298.04l-0.34,0.29l-2.46,2.14c-0.31,0.27-0.64,0.57-1.04,0.97c-0.69,0.68-2.57,2.26-4.94,2.22
				c-1.55-0.01-3.08-0.7-4.56-2.03l1.98-1.72l0.79-0.69l0.06-0.05l0.27-0.23c0.15-0.13,0.3-0.27,0.45-0.41l0.1-0.1
				c0.04-0.03,0.07-0.07,0.11-0.1l0.05-0.04c0.17-0.16,0.34-0.31,0.51-0.46c1.34-1.13,2.73-1.74,4.13-1.8c0.17-0.01,0.33,0,0.5,0
				c0.08,0,0.16,0.01,0.25,0.02c0.26,0.02,0.51,0.06,0.75,0.12c0.71,0.16,1.34,0.45,1.89,0.76c0.3,0.17,0.57,0.35,0.81,0.53
				c0.13,0.1,0.25,0.19,0.37,0.29c0.12,0.1,0.22,0.19,0.31,0.27C409.53,298.03,409.54,298.04,409.55,298.04z"/>
		</g>
		<path d="M399.31,339.62c0.01,0,0.02,0,0.02,0l-0.02,0.02V339.62z"/>
		<path d="M412.11,337.58v0.02h0.02C412.12,337.6,412.11,337.59,412.11,337.58z"/>
		<g>
			<path d="M423.67,341.64c-0.61,0.36-1.83,0.95-3.44,0.98c-2.7,0.05-4.53-1.5-4.99-1.9c0.1-0.09,0.2-0.17,0.3-0.26
				c1.26-1.09,1.97-1.73,3.06-2.7c0.99-0.87,1.48-1.31,1.69-1.48c1.1-0.88,2.02-1.45,3.14-1.48c0.06,0,0.1,0,0.13,0
				c0.13,0,0.27,0.01,0.39,0.04c0.08,0.02,0.15,0.04,0.23,0.06c0.04,0.01,0.09,0.03,0.13,0.05c0.13,0.05,0.26,0.11,0.38,0.19
				c0.18,0.11,0.3,0.2,0.37,0.26c0.11,0.09,0.2,0.17,0.27,0.24c0.33,0.38,0.75,0.98,0.87,1.8
				C426.42,339,425.42,340.67,423.67,341.64z"/>
		</g>
		<path d="M304.74,336.98l-0.35,0.3l-0.7,0.61l-0.05,0.04c-0.07,0.06-0.14,0.12-0.21,0.18l-0.85,0.74l-0.65,0.56
			c-0.12,0.11-0.29,0.26-0.49,0.44c-0.39,0.35-0.68,0.6-0.7,0.62c-2.42,2.11-4.82,2.14-4.82,2.14c-2.41,0.04-4.13-1.59-4.57-2.04
			c0.37-0.32,0.74-0.65,1.11-0.97c0.4-0.35,0.72-0.64,0.93-0.82c0.69-0.61,1.39-1.2,2.07-1.82c0.1-0.09,0.23-0.21,0.43-0.37
			c0,0,0.51-0.41,1-0.71c1.66-1.01,3.42-0.92,3.42-0.92c0.96,0.05,1.83,0.35,2.56,0.73c0.27,0.14,0.52,0.29,0.75,0.44
			c0.1,0.07,0.2,0.13,0.29,0.2c0.24,0.18,0.41,0.31,0.46,0.35C304.49,336.76,304.6,336.86,304.74,336.98z"/>
		<path d="M317.15,336.98l-0.35,0.3l-0.7,0.61l-0.05,0.04c-0.07,0.06-0.14,0.12-0.21,0.18l-0.85,0.74l-0.65,0.56
			c-0.12,0.11-0.29,0.26-0.49,0.44c-0.39,0.35-0.68,0.6-0.7,0.62c-2.42,2.11-4.82,2.14-4.82,2.14c-2.41,0.04-4.13-1.59-4.57-2.04
			c0.37-0.32,0.74-0.65,1.11-0.97c0.4-0.35,0.72-0.64,0.93-0.82c0.69-0.61,1.39-1.2,2.07-1.82c0.1-0.09,0.23-0.21,0.43-0.37
			c0,0,0.51-0.41,1-0.71c1.66-1.01,3.42-0.92,3.42-0.92c0.96,0.05,1.83,0.35,2.56,0.73c0.27,0.14,0.52,0.29,0.75,0.44
			c0.1,0.07,0.2,0.13,0.29,0.2c0.24,0.18,0.41,0.31,0.46,0.35C316.9,336.76,317.02,336.86,317.15,336.98z"/>
		<path d="M416.43,336.98l-0.35,0.3l-0.7,0.61l-0.05,0.04c-0.07,0.06-0.14,0.12-0.21,0.18l-0.85,0.74l-0.65,0.56
			c-0.12,0.11-0.29,0.26-0.49,0.44c-0.39,0.35-0.68,0.6-0.7,0.62c-2.42,2.11-4.82,2.14-4.82,2.14c-2.41,0.04-4.13-1.59-4.57-2.04
			c0.37-0.32,0.74-0.65,1.11-0.97c0.4-0.35,0.72-0.64,0.93-0.82c0.69-0.61,1.39-1.2,2.07-1.82c0.1-0.09,0.23-0.21,0.43-0.37
			c0,0,0.51-0.41,1-0.71c1.66-1.01,3.42-0.92,3.42-0.92c0.96,0.05,1.83,0.35,2.56,0.73c0.27,0.14,0.52,0.29,0.75,0.44
			c0.1,0.07,0.2,0.13,0.29,0.2c0.24,0.18,0.41,0.31,0.46,0.35C416.18,336.76,416.29,336.86,416.43,336.98z"/>
		<path d="M329.58,336.98l-0.35,0.3l-0.7,0.61l-0.05,0.04c-0.07,0.06-0.14,0.12-0.21,0.18l-0.85,0.74l-0.65,0.56
			c-0.12,0.11-0.29,0.26-0.49,0.44c-0.39,0.35-0.68,0.6-0.7,0.62c-2.42,2.11-4.82,2.14-4.82,2.14c-2.41,0.04-4.13-1.59-4.57-2.04
			c0.37-0.32,0.74-0.65,1.11-0.97c0.4-0.35,0.72-0.64,0.93-0.82c0.69-0.61,1.39-1.2,2.07-1.82c0.1-0.09,0.23-0.21,0.43-0.37
			c0,0,0.51-0.41,1-0.71c1.66-1.01,3.42-0.92,3.42-0.92c0.96,0.05,1.83,0.35,2.56,0.73c0.27,0.14,0.52,0.29,0.75,0.44
			c0.1,0.07,0.2,0.13,0.29,0.2c0.24,0.18,0.41,0.31,0.46,0.35C329.33,336.76,329.44,336.86,329.58,336.98z"/>
		<path d="M341.99,336.98l-0.35,0.3l-0.7,0.61l-0.05,0.04c-0.07,0.06-0.14,0.12-0.21,0.18l-0.85,0.74l-0.65,0.56
			c-0.12,0.11-0.29,0.26-0.49,0.44c-0.39,0.35-0.68,0.6-0.7,0.62c-2.42,2.11-4.82,2.14-4.82,2.14c-2.41,0.04-4.13-1.59-4.57-2.04
			c0.37-0.32,0.74-0.65,1.11-0.97c0.4-0.35,0.72-0.64,0.93-0.82c0.69-0.61,1.39-1.2,2.07-1.82c0.1-0.09,0.23-0.21,0.43-0.37
			c0,0,0.51-0.41,1-0.71c1.66-1.01,3.42-0.92,3.42-0.92c0.96,0.05,1.83,0.35,2.56,0.73c0.27,0.14,0.52,0.29,0.75,0.44
			c0.1,0.07,0.2,0.13,0.29,0.2c0.24,0.18,0.41,0.31,0.46,0.35C341.74,336.76,341.86,336.86,341.99,336.98z"/>
		<path d="M404.11,336.98l-0.35,0.3l-0.7,0.61l-0.05,0.04c-0.07,0.06-0.14,0.12-0.21,0.18l-0.85,0.74l-0.65,0.56
			c-0.12,0.11-0.29,0.26-0.49,0.44c-0.39,0.35-0.68,0.6-0.7,0.62c-2.42,2.11-4.82,2.14-4.82,2.14c-2.41,0.04-4.13-1.59-4.57-2.04
			c0.37-0.32,0.74-0.65,1.11-0.97c0.4-0.35,0.72-0.64,0.93-0.82c0.69-0.61,1.39-1.2,2.07-1.82c0.1-0.09,0.23-0.21,0.43-0.37
			c0,0,0.51-0.41,1-0.71c1.66-1.01,3.42-0.92,3.42-0.92c0.96,0.05,1.83,0.35,2.56,0.73c0.27,0.14,0.52,0.29,0.75,0.44
			c0.1,0.07,0.2,0.13,0.29,0.2c0.24,0.18,0.41,0.31,0.46,0.35C403.86,336.76,403.98,336.86,404.11,336.98z"/>
		<g>
			<path d="M354.41,336.98l-0.35,0.3l-0.7,0.61l-0.05,0.04c-0.07,0.06-0.14,0.12-0.21,0.18l-0.85,0.74l-0.65,0.56
				c-0.12,0.11-0.29,0.26-0.49,0.44c-0.39,0.35-0.68,0.6-0.7,0.62c-2.42,2.11-4.82,2.14-4.82,2.14c-2.41,0.04-4.13-1.59-4.57-2.04
				c0.37-0.32,0.74-0.65,1.11-0.97c0.4-0.35,0.72-0.64,0.93-0.82c0.69-0.61,1.39-1.2,2.07-1.82c0.1-0.09,0.23-0.21,0.43-0.37
				c0,0,0.51-0.41,1-0.71c1.66-1.01,3.42-0.92,3.42-0.92c0.96,0.05,1.83,0.35,2.56,0.73c0.27,0.14,0.52,0.29,0.75,0.44
				c0.1,0.07,0.2,0.13,0.29,0.2c0.24,0.18,0.41,0.31,0.46,0.35C354.16,336.76,354.28,336.86,354.41,336.98z"/>
			<path d="M366.82,336.98l-0.35,0.3l-0.7,0.61l-0.05,0.04c-0.07,0.06-0.14,0.12-0.21,0.18l-0.85,0.74l-0.65,0.56
				c-0.12,0.11-0.29,0.26-0.49,0.44c-0.39,0.35-0.68,0.6-0.7,0.62c-2.42,2.11-4.82,2.14-4.82,2.14c-2.41,0.04-4.13-1.59-4.57-2.04
				c0.37-0.32,0.74-0.65,1.11-0.97c0.4-0.35,0.72-0.64,0.93-0.82c0.69-0.61,1.39-1.2,2.07-1.82c0.1-0.09,0.23-0.21,0.43-0.37
				c0,0,0.51-0.41,1-0.71c1.66-1.01,3.42-0.92,3.42-0.92c0.96,0.05,1.83,0.35,2.56,0.73c0.27,0.14,0.52,0.29,0.75,0.44
				c0.1,0.07,0.2,0.13,0.29,0.2c0.24,0.18,0.41,0.31,0.46,0.35C366.57,336.76,366.69,336.86,366.82,336.98z"/>
			<path d="M379.25,336.98l-0.35,0.3l-0.7,0.61l-0.05,0.04c-0.07,0.06-0.14,0.12-0.21,0.18l-0.85,0.74l-0.65,0.56
				c-0.12,0.11-0.29,0.26-0.49,0.44c-0.39,0.35-0.68,0.6-0.7,0.62c-2.42,2.11-4.82,2.14-4.82,2.14c-2.41,0.04-4.13-1.59-4.57-2.04
				c0.37-0.32,0.74-0.65,1.11-0.97c0.4-0.35,0.72-0.64,0.93-0.82c0.69-0.61,1.39-1.2,2.07-1.82c0.1-0.09,0.23-0.21,0.43-0.37
				c0,0,0.51-0.41,1-0.71c1.66-1.01,3.42-0.92,3.42-0.92c0.96,0.05,1.83,0.35,2.56,0.73c0.27,0.14,0.52,0.29,0.75,0.44
				c0.1,0.07,0.2,0.13,0.29,0.2c0.24,0.18,0.41,0.31,0.46,0.35C379,336.76,379.12,336.86,379.25,336.98z"/>
			<path d="M391.66,336.98l-0.35,0.3l-0.7,0.61l-0.05,0.04c-0.07,0.06-0.14,0.12-0.21,0.18l-0.85,0.74l-0.65,0.56
				c-0.12,0.11-0.29,0.26-0.49,0.44c-0.39,0.35-0.68,0.6-0.7,0.62c-2.42,2.11-4.82,2.14-4.82,2.14c-2.41,0.04-4.13-1.59-4.57-2.04
				c0.37-0.32,0.74-0.65,1.11-0.97c0.4-0.35,0.72-0.64,0.93-0.82c0.69-0.61,1.39-1.2,2.07-1.82c0.1-0.09,0.23-0.21,0.43-0.37
				c0,0,0.51-0.41,1-0.71c1.66-1.01,3.42-0.92,3.42-0.92c0.96,0.05,1.83,0.35,2.56,0.73c0.27,0.14,0.52,0.29,0.75,0.44
				c0.1,0.07,0.2,0.13,0.29,0.2c0.24,0.18,0.41,0.31,0.46,0.35C391.41,336.76,391.53,336.86,391.66,336.98z"/>
		</g>
		<g>
			<path d="M436.71,238.37c-0.61,0.36-1.83,0.95-3.44,0.98c-2.7,0.05-4.53-1.5-4.99-1.9c0.1-0.09,0.2-0.17,0.3-0.26
				c1.26-1.09,1.97-1.73,3.06-2.7c0.99-0.87,1.48-1.31,1.69-1.48c1.1-0.88,2.02-1.45,3.14-1.48c0.06,0,0.1,0,0.13,0
				c0.13,0,0.27,0.01,0.39,0.04c0.08,0.02,0.15,0.04,0.23,0.06c0.04,0.01,0.09,0.03,0.13,0.05c0.13,0.05,0.26,0.11,0.38,0.19
				c0.18,0.11,0.3,0.2,0.37,0.26c0.11,0.09,0.2,0.17,0.27,0.24c0.33,0.38,0.75,0.98,0.87,1.8
				C439.45,235.73,438.45,237.4,436.71,238.37z"/>
		</g>
		<path d="M429.46,233.71l-0.35,0.3l-0.7,0.61l-0.05,0.04c-0.07,0.06-0.14,0.12-0.21,0.18l-0.85,0.74l-0.65,0.56
			c-0.12,0.11-0.29,0.26-0.49,0.44c-0.39,0.35-0.68,0.6-0.7,0.62c-2.42,2.11-4.82,2.14-4.82,2.14c-2.41,0.04-4.13-1.59-4.57-2.04
			c0.37-0.32,0.74-0.65,1.11-0.97c0.4-0.35,0.72-0.64,0.93-0.82c0.69-0.61,1.39-1.2,2.07-1.82c0.1-0.09,0.23-0.21,0.43-0.37
			c0,0,0.51-0.41,1-0.71c1.66-1.01,3.42-0.92,3.42-0.92c0.96,0.05,1.83,0.35,2.56,0.73c0.27,0.14,0.52,0.29,0.75,0.44
			c0.1,0.07,0.2,0.13,0.29,0.2c0.24,0.18,0.41,0.31,0.46,0.35C429.21,233.49,429.33,233.59,429.46,233.71z"/>
		<path d="M417.14,233.71l-0.35,0.3l-0.7,0.61l-0.05,0.04c-0.07,0.06-0.14,0.12-0.21,0.18l-0.85,0.74l-0.65,0.56
			c-0.12,0.11-0.29,0.26-0.49,0.44c-0.39,0.35-0.68,0.6-0.7,0.62c-2.42,2.11-4.82,2.14-4.82,2.14c-2.41,0.04-4.13-1.59-4.57-2.04
			c0.37-0.32,0.74-0.65,1.11-0.97c0.4-0.35,0.72-0.64,0.93-0.82c0.69-0.61,1.39-1.2,2.07-1.82c0.1-0.09,0.23-0.21,0.43-0.37
			c0,0,0.51-0.41,1-0.71c1.66-1.01,3.42-0.92,3.42-0.92c0.96,0.05,1.83,0.35,2.56,0.73c0.27,0.14,0.52,0.29,0.75,0.44
			c0.1,0.07,0.2,0.13,0.29,0.2c0.24,0.18,0.41,0.31,0.46,0.35C416.89,233.49,417.01,233.59,417.14,233.71z"/>
		<path d="M379.85,233.71l-0.35,0.3l-0.7,0.61l-0.05,0.04c-0.07,0.06-0.14,0.12-0.21,0.18l-0.85,0.74l-0.65,0.56
			c-0.12,0.11-0.29,0.26-0.49,0.44c-0.39,0.35-0.68,0.6-0.7,0.62c-2.42,2.11-4.82,2.14-4.82,2.14c-2.41,0.04-4.13-1.59-4.57-2.04
			c0.37-0.32,0.74-0.65,1.11-0.97c0.4-0.35,0.72-0.64,0.93-0.82c0.69-0.61,1.39-1.2,2.07-1.82c0.1-0.09,0.23-0.21,0.43-0.37
			c0,0,0.51-0.41,1-0.71c1.66-1.01,3.42-0.92,3.42-0.92c0.96,0.05,1.83,0.35,2.56,0.73c0.27,0.14,0.52,0.29,0.75,0.44
			c0.1,0.07,0.2,0.13,0.29,0.2c0.24,0.18,0.41,0.31,0.46,0.35C379.6,233.49,379.72,233.59,379.85,233.71z"/>
		<path d="M392.28,233.71l-0.35,0.3l-0.7,0.61l-0.05,0.04c-0.07,0.06-0.14,0.12-0.21,0.18l-0.85,0.74l-0.65,0.56
			c-0.12,0.11-0.29,0.26-0.49,0.44c-0.39,0.35-0.68,0.6-0.7,0.62c-2.42,2.11-4.82,2.14-4.82,2.14c-2.41,0.04-4.13-1.59-4.57-2.04
			c0.37-0.32,0.74-0.65,1.11-0.97c0.4-0.35,0.72-0.64,0.93-0.82c0.69-0.61,1.39-1.2,2.07-1.82c0.1-0.09,0.23-0.21,0.43-0.37
			c0,0,0.51-0.41,1-0.71c1.66-1.01,3.42-0.92,3.42-0.92c0.96,0.05,1.83,0.35,2.56,0.73c0.27,0.14,0.52,0.29,0.75,0.44
			c0.1,0.07,0.2,0.13,0.29,0.2c0.24,0.18,0.41,0.31,0.46,0.35C392.03,233.49,392.15,233.59,392.28,233.71z"/>
		<path d="M404.69,233.71l-0.35,0.3l-0.7,0.61l-0.05,0.04c-0.07,0.06-0.14,0.12-0.21,0.18l-0.85,0.74l-0.65,0.56
			c-0.12,0.11-0.29,0.26-0.49,0.44c-0.39,0.35-0.68,0.6-0.7,0.62c-2.42,2.11-4.82,2.14-4.82,2.14c-2.41,0.04-4.13-1.59-4.57-2.04
			c0.37-0.32,0.74-0.65,1.11-0.97c0.4-0.35,0.72-0.64,0.93-0.82c0.69-0.61,1.39-1.2,2.07-1.82c0.1-0.09,0.23-0.21,0.43-0.37
			c0,0,0.51-0.41,1-0.71c1.66-1.01,3.42-0.92,3.42-0.92c0.96,0.05,1.83,0.35,2.56,0.73c0.27,0.14,0.52,0.29,0.75,0.44
			c0.1,0.07,0.2,0.13,0.29,0.2c0.24,0.18,0.41,0.31,0.46,0.35C404.44,233.49,404.56,233.59,404.69,233.71z"/>
		<path d="M288.75,281.67L288.75,281.67c-0.01,0-0.02,0-0.03,0H288.75z"/>
		<path d="M288.62,243.08c0-1.47,0-2.94,0-4.41c-0.84,0.61-2.3,1.46-4.27,1.71c-2.73,0.34-4.95-0.69-5.54-1.2
			c-0.35-0.31-0.74-0.69-0.74-0.69c-0.12-0.13-0.25-0.26-0.37-0.4c-0.08-0.08-0.15-0.17-0.22-0.25c-0.27,0.25-0.66,0.6-1.14,0.97
			c-0.41,0.31-0.79,0.59-1.29,0.86c-0.42,0.22-1.09,0.51-1.99,0.65c0.01,0.2,0.04,0.37,0.07,0.5c0.02,0.08,0.03,0.11,0.06,0.25
			c0.04,0.16,0.06,0.26,0.11,0.48c0.29,1.17,0.43,1.76,0.81,2.34c0,0,0.29,0.43,0.73,0.79c0.41,0.33,0.86,0.54,1.31,0.66h0
			L288.62,243.08z"/>
		<path d="M295.85,347.47c-4.38,0-7.93,3.51-7.93,7.84c0,4.33,3.55,7.84,7.93,7.84s7.92-3.51,7.92-7.84
			C303.77,350.98,300.22,347.47,295.85,347.47z M295.85,358.06c-1.54,0-2.79-1.23-2.79-2.76c0-1.52,1.25-2.76,2.79-2.76
			c1.54,0,2.79,1.24,2.79,2.76C298.63,356.83,297.39,358.06,295.85,358.06z"/>
		<path d="M405.02,347.47c-4.38,0-7.93,3.51-7.93,7.84c0,4.33,3.55,7.84,7.93,7.84s7.92-3.51,7.92-7.84
			C412.95,350.98,409.4,347.47,405.02,347.47z M405.02,358.06c-1.54,0-2.79-1.23-2.79-2.76c0-1.52,1.25-2.76,2.79-2.76
			c1.54,0,2.79,1.24,2.79,2.76C407.81,356.83,406.56,358.06,405.02,358.06z"/>
		<path d="M361.56,239.81v4.16c-4.24,0.88-8.64,0.92-12.89,0.09l5.24-0.93h0.02c0.18,0.02,0.36,0.02,0.54,0.02
			c2.21,0,4.15-1.1,5.31-2.78C360.43,240.26,361.02,240.06,361.56,239.81z"/>
		<path d="M397.92,246.05v6.61c-2.15,0.45-4.35,0.7-6.54,0.73c-0.23,0-0.46,0-0.69,0c-2.2-0.03-4.39-0.27-6.54-0.73v-6.57
			c0.01-0.03,0.02-0.05,0.03-0.08C388.64,247.29,393.45,247.3,397.92,246.05z"/>
		<path d="M397.59,252.66v0.04c-2.1,0.44-4.24,0.67-6.38,0.69C393.35,253.36,395.49,253.12,397.59,252.66z"/>
		<path d="M337.31,289.29v6.65c-0.43,0.09-0.87,0.17-1.3,0.24l-0.09-0.08c-0.27-0.23-0.57-0.46-0.87-0.66
			c-0.16-0.11-0.31-0.21-0.45-0.29c-0.26-0.16-0.55-0.32-0.85-0.45c-0.29-0.14-0.59-0.26-0.87-0.35c-0.62-0.21-1.26-0.34-1.9-0.37
			c-1.75-0.09-3.47,0.51-5.11,1.77l-0.13,0.1c-0.15,0.12-0.3,0.24-0.44,0.37c-0.6-0.09-1.2-0.2-1.79-0.33v-6.57
			c0.01-0.03,0.02-0.06,0.03-0.08C328.02,290.53,332.83,290.54,337.31,289.29z"/>
		<path d="M361.59,289.3v6.65c-0.34,0.07-0.69,0.14-1.03,0.2c-0.25-0.21-0.5-0.41-0.74-0.57c-0.24-0.17-0.5-0.34-0.78-0.49
			c-0.28-0.16-0.56-0.3-0.84-0.42c-0.29-0.13-0.58-0.23-0.86-0.31c-0.52-0.15-1.04-0.24-1.54-0.27c-1.73-0.09-3.45,0.53-5.09,1.86
			l-0.2,0.16c-0.07,0.06-0.15,0.13-0.22,0.19c-0.72-0.11-1.44-0.24-2.16-0.39v-6.57c0.01-0.03,0.02-0.06,0.03-0.09
			C352.54,290.53,357.23,290.54,361.59,289.3z"/>
		<path d="M385.84,289.34v6.57c-0.12,0.02-0.23,0.05-0.35,0.07c-0.27-0.22-0.57-0.44-0.9-0.64c-0.28-0.18-0.56-0.33-0.84-0.46
			c-0.09-0.05-0.18-0.09-0.28-0.13c-0.22-0.1-0.41-0.18-0.6-0.24c-0.1-0.04-0.2-0.07-0.29-0.1c-0.58-0.18-1.16-0.29-1.75-0.32
			c-1.67-0.08-3.31,0.46-4.87,1.61c-0.29,0.21-0.59,0.45-0.91,0.73c-1-0.11-1.99-0.27-2.97-0.47v-6.65
			c4.47,1.25,9.27,1.23,13.73-0.04C385.82,289.29,385.83,289.31,385.84,289.34z"/>
		<path d="M396.3,272.34c-0.01,0.03-0.02,0.06-0.03,0.08v6.57c4.53,0.96,9.25,0.97,13.79,0.04l0-6.65
			C405.58,273.62,400.77,273.61,396.3,272.34z"/>
		<path d="M410.03,289.3v6.36c-0.06-0.04-0.12-0.09-0.18-0.13c-0.3-0.22-0.61-0.42-0.91-0.59c-0.72-0.41-1.46-0.7-2.18-0.86
			c-0.28-0.07-0.58-0.12-0.89-0.15c-0.11-0.01-0.21-0.02-0.32-0.03c-0.16-0.01-0.37-0.01-0.59,0c-1.64,0.06-3.26,0.74-4.81,2.02
			c-0.19,0.16-0.37,0.32-0.55,0.48l-0.03,0.03c-0.53-0.06-1.06-0.13-1.59-0.21l-0.08-0.07c-0.33-0.29-0.65-0.54-0.99-0.77
			c-0.21-0.15-0.42-0.28-0.64-0.4v-5.64c0.01-0.03,0.02-0.06,0.03-0.08c1.65,0.47,3.35,0.77,5.06,0.89c1.31,0.1,2.63,0.09,3.95-0.02
			C406.9,290.01,408.49,289.73,410.03,289.3z"/>
		<path d="M348.18,254.87c-0.01,0.03-0.02,0.06-0.03,0.08v6.57c4.42,0.96,9.02,0.97,13.44,0.04v-6.65
			C357.23,256.15,352.54,256.14,348.18,254.87z"/>
		<path d="M348.18,272.34c-0.01,0.03-0.02,0.06-0.03,0.08v6.57c4.42,0.96,9.02,0.97,13.44,0.04v-6.65
			C357.23,273.62,352.54,273.61,348.18,272.34z"/>
		<path d="M313.01,254.87c0.01,0.03,0.02,0.06,0.03,0.08v6.57c-4.53,0.96-9.25,0.97-13.78,0.04v-6.65
			C303.74,256.15,308.55,256.14,313.01,254.87z"/>
		<path d="M313.01,272.34c0.01,0.03,0.02,0.06,0.03,0.08v6.57c-4.53,0.96-9.25,0.97-13.78,0.04v-6.65
			C303.74,273.62,308.55,273.61,313.01,272.34z"/>
		<path d="M313.04,289.34v6.57c-0.64,0.13-1.28,0.25-1.92,0.35l-0.13-0.1c-0.01-0.01-0.03-0.02-0.04-0.03
			c-0.1-0.08-0.2-0.17-0.31-0.26c-0.17-0.14-0.35-0.27-0.51-0.38c-0.11-0.08-0.22-0.15-0.34-0.23c-0.3-0.19-0.58-0.35-0.86-0.49
			c-1.33-0.64-3-0.83-3-0.83c-1.25-0.13-2.83-0.3-4.08,0.62c-0.1,0.07-0.18,0.14-0.23,0.19c-0.53,0.45-1.06,0.9-1.58,1.36
			c-0.09-0.02-0.18-0.03-0.27-0.05c-0.17-0.03-0.35-0.07-0.52-0.1v-6.65c1.7,0.46,4.05,0.92,6.88,0.93
			C308.98,290.23,311.34,289.79,313.04,289.34z"/>
		<path d="M323.55,254.87c-0.01,0.03-0.02,0.06-0.03,0.08v6.57c4.53,0.96,9.26,0.97,13.8,0.04v-6.65
			C332.83,256.15,328.02,256.14,323.55,254.87z"/>
		<path d="M323.55,272.34c-0.01,0.03-0.02,0.06-0.03,0.08v6.57c4.53,0.96,9.26,0.97,13.8,0.04v-6.65
			C332.83,273.62,328.02,273.61,323.55,272.34z"/>
		<path d="M288.62,254.87v6.65c-0.73,0.15-1.47,0.28-2.2,0.38c-2.54,0.35-5.11,0.4-7.66,0.16l-0.39-1.45
			c-0.17-0.55-0.65-2.15-0.87-3.5c-0.02-0.1-0.03-0.21-0.04-0.32l10.57-1.86C288.22,254.92,288.42,254.89,288.62,254.87z"/>
		<path d="M288.72,272.34v6.65c-1.75,0.35-3.52,0.57-5.3,0.65c-0.14-0.5-0.5-1.74-0.98-3.41c-0.58-2.01-0.76-2.62-0.41-3.02
			c0.48-0.53,1.42-0.12,3.18-0.18C286.69,272.99,287.89,272.65,288.72,272.34z"/>
		<path d="M422.12,246.01c0.01,0.03,0.02,0.06,0.03,0.08v6.57c-4.52,0.96-9.23,0.97-13.75,0.04v-6.65
			C412.86,247.3,417.66,247.28,422.12,246.01z"/>
		<path d="M421.7,263.48c0.01,0.03,0.02,0.06,0.03,0.08v6.57c-4.38,0.96-8.94,0.97-13.32,0.04v-6.65
			C412.73,264.76,417.38,264.75,421.7,263.48z"/>
		<path d="M324.83,248.33v4.37c-4.42,0.93-9.03,0.92-13.44-0.04v-1.93L324.83,248.33z"/>
		<path d="M311.42,263.48c-0.01,0.03-0.02,0.06-0.03,0.08v6.57c4.52,0.96,9.23,0.97,13.75,0.04v-6.65
			C320.67,264.76,315.88,264.75,311.42,263.48z"/>
		<path d="M311.42,280.95c-0.01,0.03-0.02,0.06-0.03,0.08v6.57c4.5,0.96,9.2,0.97,13.71,0.04v-6.65
			C320.65,282.23,315.86,282.22,311.42,280.95z"/>
		<path d="M300.85,263.48c0.01,0.03,0.02,0.06,0.03,0.08v6.57c-4.52,0.96-9.22,0.97-13.75,0.04v-6.65
			C291.6,264.76,296.4,264.75,300.85,263.48z"/>
		<path d="M300.85,280.95c0.01,0.03,0.02,0.06,0.03,0.08v6.57c-4.5,0.96-9.2,0.97-13.71,0.04v-6.65
			C291.63,282.23,296.41,282.22,300.85,280.95z"/>
		<polygon points="300.88,252.66 300.88,253.33 298.7,253 		"/>
		<path d="M349.42,246.09v6.57c-4.53,0.96-9.25,0.97-13.78,0.04v-6.3l0.8-0.14h0c4.24,1.03,8.74,0.95,12.95-0.25
			C349.4,246.04,349.41,246.07,349.42,246.09z"/>
		<path d="M349.35,263.48c0.01,0.03,0.02,0.06,0.03,0.08v6.57c-4.51,0.96-9.22,0.97-13.74,0.04v-6.65
			C340.1,264.76,344.89,264.75,349.35,263.48z"/>
		<path d="M349.4,280.95c0.01,0.03,0.02,0.06,0.03,0.08v6.57c-0.05,0.01-0.14,0.03-0.23,0.05c-2.72,0.55-5.05,0.67-6.66,0.68
			c-2.7,0.01-5.03-0.31-6.9-0.69v-6.65C340.12,282.23,344.93,282.22,349.4,280.95z"/>
		<path d="M375.77,245.74v8.43c2.09,0.26,4.2,0.27,6.29,0v-8.43C379.98,246.14,377.85,246.14,375.77,245.74z"/>
		<path d="M370,289.45v5.23c-0.02-0.01-0.05-0.01-0.07-0.02c-0.1-0.03-0.18-0.04-0.27-0.05c-0.35-0.07-0.7-0.12-1.06-0.13
			c-1.53-0.07-3.04,0.34-4.48,1.22c-0.16,0.1-0.32,0.2-0.48,0.31v-6.56C365.73,289.84,367.89,289.84,370,289.45z"/>
		<path d="M351.5,280.49v8.43c2.1,0.26,4.22,0.27,6.32,0v-8.43C355.73,280.89,353.58,280.89,351.5,280.49z"/>
		<path d="M351.5,263.33v8.43c2.1,0.26,4.22,0.27,6.32,0v-8.43C355.73,263.73,353.58,263.73,351.5,263.33z"/>
		<path d="M351.5,245.74v8.43c2.1,0.26,4.22,0.27,6.31,0v-8.43C355.72,246.14,353.58,246.14,351.5,245.74z"/>
		<path d="M327.21,280.49v8.43c2.11,0.26,4.24,0.27,6.35,0v-8.43C331.46,280.89,329.31,280.89,327.21,280.49z"/>
		<path d="M327.22,263.33v8.43c2.1,0.26,4.23,0.27,6.34,0v-8.43C331.46,263.73,329.31,263.73,327.22,263.33z"/>
		<path d="M315.13,271.86v8.43c2.09,0.26,4.2,0.27,6.29,0v-8.43C319.34,272.26,317.21,272.26,315.13,271.86z"/>
		<path d="M321.44,289.55v5.69l-0.21-0.09c-0.08-0.03-0.16-0.07-0.23-0.1c-0.84-0.34-1.69-0.54-2.54-0.58
			c-1.13-0.05-2.24,0.16-3.34,0.64v-5.57C317.2,289.95,319.35,289.95,321.44,289.55z"/>
		<path d="M302.98,280.49v8.43c2.1,0.26,4.23,0.27,6.34,0v-8.43C307.22,280.89,305.07,280.89,302.98,280.49z"/>
		<path d="M302.98,263.33v8.43c2.1,0.26,4.23,0.27,6.34,0v-8.43C307.22,263.73,305.07,263.73,302.98,263.33z"/>
		<path d="M290.84,271.86v8.43c2.1,0.26,4.22,0.27,6.32,0v-8.43C295.07,272.26,292.93,272.26,290.84,271.86z"/>
		<path d="M297.16,289.81v4.89c-1.08-0.51-2.22-0.77-3.4-0.77c-0.1,0-0.21,0-0.3,0c-0.9,0.03-1.78,0.22-2.62,0.56v-4.69
			C292.93,290.2,295.07,290.2,297.16,289.81z"/>
		<path d="M297.24,254.56v8.43c-2.15,0.26-4.33,0.26-6.49,0v-8.32l0.3-0.05c0.01,0,0.02,0,0.03,0h0
			C293.12,254.95,295.21,254.93,297.24,254.56z"/>
		<path d="M346.07,289.19v5.73c-0.03-0.01-0.05-0.02-0.08-0.03c-0.11-0.04-0.22-0.07-0.32-0.1c-0.63-0.18-1.27-0.29-1.91-0.32
			c-1.48-0.06-2.95,0.29-4.37,1.04v-6.33C341.6,289.58,343.86,289.59,346.07,289.19z"/>
		<path d="M339.39,271.86v8.43c2.22,0.26,4.46,0.27,6.68,0v-8.43C343.86,272.26,341.6,272.26,339.39,271.86z"/>
		<path d="M339.39,254.55v8.43c2.22,0.26,4.46,0.27,6.68,0v-8.43C343.86,254.95,341.6,254.95,339.39,254.55z"/>
		<path d="M424.22,245.74v8.43c2.09,0.26,4.2,0.27,6.28,0v-8.43C428.43,246.14,426.3,246.14,424.22,245.74z"/>
		<path d="M394.19,289.53v5.09c-0.07-0.02-0.15-0.03-0.23-0.04c-0.16-0.03-0.33-0.06-0.52-0.07c-0.11-0.02-0.23-0.03-0.37-0.03
			l-0.06,0c-1.74-0.07-3.46,0.51-5.11,1.74v-6.69C389.99,289.92,392.12,289.93,394.19,289.53z"/>
		<path d="M420.74,289.26c0.62,0,1.42,0.06,1.72,0.38c0.01,0.01,0.02,0.02,0.02,0.02c0,0,0,0,0,0c0.23,0.26,0,1.13,0,1.13
			c-0.07,0.25-0.13,0.53-0.21,0.84c-0.11,0.5-0.17,0.8-0.23,1.06c-0.03,0.16-0.21,0.98-0.46,1.73c-0.16,0.47-0.41,1.13-0.84,1.87
			V289.26z"/>
		<path d="M423.83,281.2c0.07-0.01,0.19-0.02,0.33,0.01c0.04,0.01,0.14,0.03,0.25,0.1c0.1,0.06,0.27,0.16,0.36,0.38
			c0.09,0.23,0.03,0.48-0.01,0.62c-0.12,0.5-0.18,1.01-0.31,1.5c0,0.01-0.13,0.63-0.39,1.87c-0.1,0.48-0.18,0.86-0.23,1.11
			C423.83,284.92,423.83,283.06,423.83,281.2z"/>
		<path d="M420.2,254.87v6.65c0.74,0.15,1.48,0.28,2.22,0.38c2.56,0.35,5.16,0.4,7.74,0.16l0.39-1.45c0.17-0.55,0.66-2.15,0.88-3.5
			c0.06-0.36,0.1-0.8-0.16-1.06c-0.32-0.32-1.05-0.32-1.73-0.31c-0.09,0-0.15,0-0.16,0C428.84,255.76,426.44,255.56,420.2,254.87z"
			/>
		<path d="M420.2,272.34v6.65c1.72,0.35,3.47,0.57,5.22,0.65c0.14-0.5,0.49-1.74,0.96-3.41c0.57-2.01,0.75-2.62,0.4-3.02
			c-0.47-0.53-1.4-0.12-3.13-0.18C422.21,272.99,421.02,272.65,420.2,272.34z"/>
		<line x1="288.91" y1="243.08" x2="276.21" y2="245.35"/>
		<path d="M310.22,298.04c-0.54,0.48-1.01,0.89-1.35,1.2c-1.51,1.34-2.14,1.88-2.45,2.15c-0.48,0.41-0.72,0.62-0.75,0.65
			c-0.61,0.47-2.14,1.65-4.23,1.62c-1.06-0.01-1.86-0.33-2.3-0.52c-1.09-0.45-1.83-1.09-2.25-1.51c1.02-0.9,2.04-1.79,3.06-2.69
			c0.1-0.09,0.48-0.41,0.98-0.86c0.48-0.42,0.66-0.58,0.74-0.66c1.05-0.91,2.93-1.47,4.17-1.4c0.5,0.03,1.17,0.18,1.47,0.27
			c0.09,0.03,0.17,0.06,0.25,0.09c0.19,0.06,0.37,0.14,0.54,0.22c0.07,0.03,0.14,0.06,0.21,0.1c0.27,0.13,0.52,0.27,0.75,0.42
			c0.3,0.2,0.57,0.39,0.8,0.58l0,0C309.98,297.83,310.1,297.94,310.22,298.04z"/>
		<path d="M410.06,241.4c-1.02,0.18-2.58,0.3-4.26-0.2c-0.48-0.14-1.49-0.45-2.58-1.26c-0.53-0.39-0.92-0.79-1.19-1.1
			c-0.58,0.47-1.37,1.01-2.37,1.48c-1.31,0.61-2.51,0.87-3.38,0.99l-0.01,2.53c1.13,0.31,2.09,0.5,2.82,0.62c0,0,3.83,0.6,7.47,0.2
			c0.17-0.02,0.32-0.04,0.48-0.06c0.28-0.04,0.55-0.09,0.81-0.13c0.86-0.16,1.6-0.34,2.21-0.52V241.4z"/>
		<g>
			<path d="M358.82,236.64v0.13c0,0.09,0,0.17-0.01,0.26c-0.02,0.31-0.07,0.62-0.16,0.92c-0.03,0.11-0.07,0.23-0.11,0.34
				c-0.1,0.26-0.22,0.51-0.37,0.74c-0.11,0.19-0.25,0.37-0.4,0.54c-0.19,0.22-0.4,0.42-0.62,0.59c-0.01,0.01-0.15,0.12-0.31,0.22
				c-1.02,0.66-2.24,0.71-2.24,0.71c-0.19,0.01-0.45,0-0.76-0.04c-0.54-0.07-1.06-0.24-1.54-0.51c-0.37-0.21-0.72-0.47-1.02-0.78
				c-0.27-0.28-0.5-0.59-0.69-0.94c-0.03-0.05-0.06-0.11-0.09-0.16c-0.13-0.26-0.24-0.54-0.31-0.83c-0.02-0.09-0.04-0.17-0.06-0.26
				c0-0.03-0.01-0.06-0.02-0.08c-0.04-0.24-0.06-0.49-0.06-0.73c0-0.58,0.11-1.14,0.33-1.67c0.17-0.39,0.39-0.75,0.66-1.08
				c0.13-0.16,0.27-0.31,0.42-0.44c0.33-0.31,0.72-0.57,1.14-0.75c0.17-0.08,0.35-0.15,0.53-0.2c0.15-0.04,0.3-0.08,0.46-0.11
				c0.28-0.06,0.56-0.09,0.84-0.09c1.13,0,2.2,0.42,3.01,1.19c0.05,0.04,0.1,0.09,0.14,0.14
				C358.34,234.53,358.78,235.54,358.82,236.64z"/>
		</g>
		<path d="M418.66,289.71v4.96c-0.05-0.02-0.11-0.04-0.16-0.06c-0.06-0.02-0.12-0.04-0.18-0.06c-0.11-0.04-0.22-0.06-0.35-0.09
			c-0.2-0.04-0.41-0.06-0.62-0.07c-0.08-0.01-0.16-0.01-0.24,0c-1.25,0.05-2.47,0.75-3.5,1.42c-0.34,0.22-0.7,0.47-1.11,0.76
			c-0.13,0.09-0.26,0.18-0.39,0.27v-7.14C414.27,290.1,416.49,290.1,418.66,289.71z"/>
		<path d="M315.12,254.55v8.43c2.1,0.26,4.22,0.27,6.32,0v-8.43C319.35,254.95,317.2,254.95,315.12,254.55z"/>
		<path d="M423.84,262.9v8.19c0.44,0.07,1.09,0.16,1.88,0.15c0.96-0.01,1.16-0.04,1.3-0.1c0.14-0.06,0.65-0.32,1.22-1.77
			c0.33-0.85,0.18-0.83,0.61-2.29c0.19-0.64,0.4-1.27,0.61-2.27c0.2-0.91,0.15-1.02,0.11-1.09c-0.38-0.61-1.75-0.09-3.87-0.37
			C424.9,263.23,424.26,263.04,423.84,262.9z"/>
		<path d="M349.15,241.88c-0.37,0.07-0.75,0.13-1.12,0.2l-0.71,0.12l-1.62,0.29l-5.98,1.07l-0.78,0.14
			c-3.37,0.6-6.74,1.2-10.11,1.81l-0.13,0.02c-0.41,0.07-0.81,0.15-1.22,0.22c-1.17,0.21-2.34,0.42-3.51,0.63
			c-0.29,0.05-0.57,0.1-0.85,0.15c-3.79,0.67-7.59,1.35-11.39,2.03l-0.75,0.13l-1.72,0.31l-5.98,1.07l-2,0.36l-12.23,2.19l-3.8,0.68
			l-4.43,0.79h-0.01l-20.88,3.73c-2.01,0.36-3.94-0.97-4.3-2.96c-0.04-0.2-0.06-0.41-0.06-0.64c0-1.42,0.85-2.73,2.15-3.33
			c0.28-0.13,0.58-0.23,0.89-0.28l1.51-0.28l16.84-3l8.28-1.48l5.89-1.05l5.98-1.07l2.06-0.37h0l14.13-2.52l2.33-0.42l1.38-0.25
			l5.22-0.93l0.01,0l1.26-0.22l0.04-0.01h0l3.09-0.55l1.63-0.29l2.01-0.36l5.03-0.9l0.02-0.01l0.03,0l4.13-0.73l4.11-0.74h0.01
			l4.83-0.86c-0.25,0.69-0.39,1.43-0.39,2.21c0,0.94,0.21,1.84,0.58,2.65c0,0,0,0,0,0c0.08,0.16,0.17,0.32,0.26,0.47
			c0.13,0.24,0.26,0.44,0.36,0.59c0.19,0.28,0.38,0.57,0.69,0.87c0.09,0.09,0.35,0.33,0.35,0.33l0,0
			C349.9,241.74,349.52,241.81,349.15,241.88z"/>
	</g>
	<g>
		<text transform="matrix(0.9683 0 0 1 164.818 437.654)" class="st1 st2">Down to Earth</text>
		<text transform="matrix(0.9683 0 0 1 192.794 479.0974)" class="st3 st4">ORGANIC &amp; NATURAL</text>
	</g>
</g>
</svg>
